<?xml version="1.0" encoding="UTF-8"?>
<svg id="_layer_1" data-name="Layer 1" xmlns="http://www.w3.org/2000/svg" xmlns:xlink="http://www.w3.org/1999/xlink" viewBox="0 0 728.5 728.5">
  <defs>
    <style>
      .cls-1 {
        fill: url(#_unnamed_gradient_68);
      }

      .cls-2 {
        filter: url(#drop-shadow-2);
      }

      .cls-3 {
        fill: url(#_unnamed_gradient_17);
      }

      .cls-4 {
        fill: url(#_unnamed_gradient_8);
      }

      .cls-5 {
        fill: url(#_unnamed_gradient_66);
      }

      .cls-6 {
        fill: url(#_unnamed_gradient_53);
      }

      .cls-7 {
        fill: url(#_unnamed_gradient_31);
      }

      .cls-8 {
        fill: url(#_unnamed_gradient_12);
      }

      .cls-9 {
        fill: url(#_unnamed_gradient_50);
      }

      .cls-10 {
        fill: url(#_unnamed_gradient_26);
      }

      .cls-11 {
        fill: url(#_unnamed_gradient_47);
      }
    </style>
    <filter id="drop-shadow-2" x="47.7" y="151.44" width="639" height="430" filterUnits="userSpaceOnUse">
      <feOffset dx="2.83" dy="2.83"/>
      <feGaussianBlur result="blur" stdDeviation="2.83"/>
      <feFlood flood-color="#000" flood-opacity=".4"/>
      <feComposite in2="blur" operator="in"/>
      <feComposite in="SourceGraphic"/>
    </filter>
    <linearGradient id="_unnamed_gradient_17" data-name="Unnamed Gradient 17" x1="143.41" y1="446.63" x2="184.89" y2="598.61" gradientUnits="userSpaceOnUse">
      <stop offset=".01" stop-color="#6baadd"/>
      <stop offset=".64" stop-color="#a3d7f6"/>
    </linearGradient>
    <linearGradient id="_unnamed_gradient_26" data-name="Unnamed Gradient 26" x1="153.58" y1="488.54" x2="284.58" y2="473.12" gradientUnits="userSpaceOnUse">
      <stop offset=".01" stop-color="#55b3ca"/>
      <stop offset=".55" stop-color="#4ba3bb"/>
      <stop offset=".95" stop-color="#4eabbd"/>
    </linearGradient>
    <linearGradient id="_unnamed_gradient_31" data-name="Unnamed Gradient 31" x1="237.14" y1="376.13" x2="347.15" y2="463.26" gradientUnits="userSpaceOnUse">
      <stop offset=".01" stop-color="#9fe2e9"/>
      <stop offset=".44" stop-color="#b0e6e9"/>
      <stop offset=".95" stop-color="#98e2e4"/>
    </linearGradient>
    <linearGradient id="_unnamed_gradient_47" data-name="Unnamed Gradient 47" x1="306.36" y1="556.64" x2="464.1" y2="316.51" gradientUnits="userSpaceOnUse">
      <stop offset=".01" stop-color="#67bae3"/>
      <stop offset=".34" stop-color="#6ccdd6"/>
      <stop offset=".72" stop-color="#7ce1d4"/>
      <stop offset=".88" stop-color="#91e6d4"/>
    </linearGradient>
    <linearGradient id="_unnamed_gradient_53" data-name="Unnamed Gradient 53" x1="400.71" y1="430.94" x2="541.97" y2="534.71" gradientUnits="userSpaceOnUse">
      <stop offset=".01" stop-color="#458ea8"/>
      <stop offset=".76" stop-color="#84e0d4"/>
    </linearGradient>
    <linearGradient id="_unnamed_gradient_66" data-name="Unnamed Gradient 66" x1="460.5" y1="486.54" x2="631.38" y2="228.37" gradientUnits="userSpaceOnUse">
      <stop offset=".05" stop-color="#73bde7"/>
      <stop offset=".18" stop-color="#6ebce2"/>
      <stop offset=".43" stop-color="#94bcc5"/>
      <stop offset=".77" stop-color="#f9b182"/>
      <stop offset=".94" stop-color="#fed398"/>
    </linearGradient>
    <linearGradient id="_unnamed_gradient_68" data-name="Unnamed Gradient 68" x1="426.22" y1="442.98" x2="685.29" y2="154.13" gradientUnits="userSpaceOnUse">
      <stop offset=".09" stop-color="#73bde7"/>
      <stop offset=".26" stop-color="#abc8cd"/>
      <stop offset=".62" stop-color="#ffc8a1"/>
      <stop offset=".82" stop-color="#fed398"/>
    </linearGradient>
    <linearGradient id="_unnamed_gradient_8" data-name="Unnamed Gradient 8" x1="41.03" y1="375.42" x2="209.39" y2="239.58" gradientUnits="userSpaceOnUse">
      <stop offset="0" stop-color="#afe0f1"/>
      <stop offset=".56" stop-color="#a3e1f2"/>
      <stop offset=".94" stop-color="#aaebe8"/>
    </linearGradient>
    <linearGradient id="_unnamed_gradient_12" data-name="Unnamed Gradient 12" x1="139.05" y1="454.25" x2="156.44" y2="202.14" gradientUnits="userSpaceOnUse">
      <stop offset=".02" stop-color="#7bc2f0"/>
      <stop offset=".5" stop-color="#a3e1f2"/>
      <stop offset=".82" stop-color="#aaebe8"/>
    </linearGradient>
    <linearGradient id="_unnamed_gradient_50" data-name="Unnamed Gradient 50" x1="244.34" y1="470.97" x2="459.33" y2="342.94" gradientUnits="userSpaceOnUse">
      <stop offset=".01" stop-color="#6dcce0"/>
      <stop offset=".35" stop-color="#75ccdd"/>
      <stop offset=".86" stop-color="#b9eadc"/>
    </linearGradient>
  </defs>
  <g class="cls-2">
    <path class="cls-3" d="M221.26,533.84c-5.06,6.16-12.31,14.85-23.34,22.25-7.36,4.93-26.91,17.57-50.24,10.96-6.12-1.74-14.34-4.22-22.49-13.34-10.55-11.82-14.32-27.32-15.63-33.96-2.46-12.49-3.1-22.89-2.73-36.7.25-9.27.78-20.45,1.86-33.25,19.22-10.71,36.59-27.8,47.39-39.75-.09,2.34-.2,5.71-.23,9.76-3.93,12.16-9.49,33.7-8.84,60.96.47,19.89,1.18,49.78,15.96,64.32,14.46,14.21,38.19,9.63,58.29-11.24Z"/>
    <path class="cls-10" d="M277.53,464.33c-.61-2.41-1.16-4.51-1.63-6.24-.27-.63-2.24-5.08-6.07-5.83-3.4-.67-6.89,1.86-8.73,6.36-3.21,8.53-7.88,19.96-14.23,32.84-7.08,14.35-14.08,28.32-25.61,42.38-20.1,20.87-43.83,25.45-58.29,11.24-14.78-14.54-15.49-44.43-15.96-64.32-.65-27.26,4.91-48.8,8.84-60.96-.19,26.74-.37,51.38,8.94,62.97,9.38,11.67,25.33,6.27,27.01,5.67,7.71-2.76,14.02-8.96,20-18.47,7.3-9.14,12.09-16.96,15.17-22.51,1.43-2.6,3.72-6.92,7.38-12.88,3.01-4.9,5.62-8.75,7.38-11.26.65-1.05,7.14-11.18,15.1-9.17,4.52,1.13,7.37,5.63,9.65,9.21,3.53,5.56,4.91,11.01,7.17,20.24,1.23,5.01,2.73,12.05,3.88,20.74Z"/>
    <path class="cls-7" d="M347.03,415.41c-1.3,8.77-1.84,12.58-2.53,18.75-.27,2.46-1.84,11.43-3.7,16.01-1.55,3.85-2.85,6.09-4.21,7.66-.89,1.03-6.78,7.66-14.97,5.85-9.22-2.02-13.41-12.95-13.83-14.1-2.91-8.68-5.81-17.81-8.65-27.36-2.93-9.9-4.41-14.99-6.82-24.29-3.2-11.05-8.19-22.68-20.27-24.27-10.8-1.44-16.75,4.61-21.31,14.68-2.39,4.96-4.78,9.95-7.17,14.96-5.76,12.1-11.4,24.15-16.93,36.12,3.43-8.29,7.04-17.56,11-27.8,13.03-33.67,19.34-58.5,35.95-65.79,5.77-2.53,9.87-1.84,11.64-1.38,18.92,4.89,25.76,44.72,26.15,47.14,1.54,9.49,2.56,14.46,8,38.57,1.13,5.03,1.99,9.2,2.75,11.89,1.67,5.85,3.62,12.19,9.02,12.42,3.73.17,7.38-4.54,9.42-11.17,1.76-5.71,4.03-16.37,6.46-27.9Z"/>
    <path class="cls-11" d="M459,424.23c-1.51-6.38-3.77-14.82-7.56-28.59-5.19-18.87-6.54-22.17-8.89-25.84-1.67-2.61-9.01-14.1-17.84-12.76-2.4.38-4.32,1.59-5.14,2.11-4,2.55-7.12,6.95-9.33,12.33-4.73,11.47-9.61,25.32-13.78,41.48-2.34,9.09-4.16,17.74-5.57,25.79-3.06,13.06-5.87,24.89-8.35,35.22-10.25,42.67-13.38,53.66-19.92,65.69-5.78,10.64-11.88,17.77-15.94,21.98-3.11,2.5-10.74,7.83-20.87,6.88-14.94-1.38-23.99-15.33-25.81-18.27-5.44-10.05-8.5-18.94-10.25-24.9-2.58-8.82-3.51-15.38-4.88-24.23,5.57,17.34,16.55,29.21,28.47,30.04,10.56.73,19.07-7.4,22-10.55,4.88-5.23,7.79-11.15,9.4-15.03,7.53-18.72,12.36-34.5,15.26-44.82,9.71-34.57,10.44-53.28,20.98-92.74,4.26-15.97,8.31-28.52,10.8-35.93,1.54-4.1,7.05-21.41,16.22-25.74,10.49-4.96,23.35,1.02,31.31,15.74,0,.01.01.03.02.04,2.5,8.03,4.08,15.05,5.14,20.6,4.89,25.77,10.43,57.54,14.53,81.49Z"/>
    <path class="cls-6" d="M535.17,433.26c-.59,2.79-1.22,5.73-1.92,8.91-.28,1.29-2.93,13.29-5.93,25.45-5.33,21.57-8.42,34.04-14.31,50.26-3.18,8.75-6.91,17.85-13.52,27.9-3.37,5.12-5.85,8.83-10.31,12.68-3.41,2.95-15.12,13.63-28.08,10.59-14.62-3.42-22.12-18.61-23.34-21.19-2.92-5.78-7.22-15.21-10.82-27.8-4.97-17.43-4.87-27.8-9.49-51.65-1.48-7.65-3.87-18.87-7.59-32.31-.37-.78-3.09-6.28-7.96-6.88-4.48-.56-8.94,3.24-11.01,9.53,1.41-8.05,3.23-16.71,5.57-25.79,4.17-16.16,9.05-30.01,13.78-41.48,2.21-5.37,5.33-9.77,9.33-12.33.82-.52,2.74-1.73,5.14-2.11,8.83-1.34,16.17,10.15,17.84,12.76,2.35,3.67,3.7,6.97,8.89,25.84,3.79,13.76,6.05,22.21,7.56,28.59h0c.13.78.26,1.54.39,2.29.17.98.42,1.9.73,2.76t.01.03c2.74,13.05,2.99,17.82,5.62,30.16,0,.01.01.01.01.03.38,1.77.81,3.71,1.3,5.85,2.8,12.19,4.3,16.33,6.25,20.25,2.81,5.63,7.15,14.25,14.61,16.86,8.74,3.04,18.3-2.02,24.15-12.88,2.3-4.24,4.6-8.75,6.87-13.55,5.03-10.65,9.92-25.6,16.23-42.77Z"/>
    <path class="cls-5" d="M623.28,220.98c-4.95,5.14-11.91,12.88-19.49,23.37-19.87,27.46-30.18,54.49-38.33,76.28-12.13,32.41-18.63,59.98-23.34,80.25-2.97,12.77-4.66,21.51-6.95,32.38-6.31,17.17-11.2,32.12-16.23,42.77-2.27,4.8-4.57,9.31-6.87,13.55-5.85,10.86-15.41,15.93-24.15,12.88-7.46-2.61-11.8-11.24-14.61-16.86-1.95-3.92-3.45-8.07-6.25-20.25-.49-2.14-.92-4.08-1.3-5.85,2.18,4.24,7.75,13.9,14.86,13.64,8.19-.31,13.83-13.57,16.9-21.26,15.85-39.75,24.72-86.08,30.7-110.62,5.44-22.32,16.98-68.07,44.26-104.63,18.18-24.34,37.66-37.02,50.74-43.75-1.7,1.38-3.42,2.85-5.15,4.38-17.13,15.3-28.64,32.72-35.65,45.16-.45,1.86-.45,3.62.1,4.13.64.6,2.23-.33,3.54-2.89,3.28-4.66,7.97-10.36,14.28-15.4,9.02-7.2,17.47-9.97,23.04-11.12,1.9-.42,2.92-.38,3.05.13.17.6-.88,1.84-3.15,3.71Z"/>
    <path class="cls-1" d="M675.09,163.28c.18,1.8-2.88,4.31-7.54,6.14-10.69,2.99-26.87,9.27-44.33,23.46-13.08,6.73-32.56,19.4-50.74,43.75-27.28,36.56-38.82,82.31-44.26,104.63-5.98,24.54-14.85,70.87-30.7,110.62-3.07,7.69-8.71,20.95-16.9,21.26-7.11.27-12.68-9.39-14.86-13.64,0-.01-.01-.01-.01-.03-2.63-12.34-2.88-17.11-5.62-30.16,1.37,3.7,4.02,6.25,7.07,6.63,3.79.46,7.39-2.55,8.88-7.44,6.51-30.39,12.91-56.98,18.58-79.16,17.37-68.02,25.98-87.13,29.19-94,15.74-33.72,31.67-51.97,39.12-59.81,5.16-5.43,9.7-9.49,12.96-12.24,4.19-2.64,7.64-3.68,8.21-2.37.59,1.31-1.67,5.23-5.41,9.39-3.32,3.85-7.18,9.03-10.93,15.77-2.68,4.82-4.76,9.45-6.37,13.6-.42,2.02-.16,2.53,0,2.68.68.68,2.74-1.88,3.24-2.51,5.14-7.24,11.12-14.57,18.06-21.5,31.81-31.71,66.06-37.44,85.92-38.15.36.04,6.2.71,6.44,3.07Z"/>
    <path class="cls-4" d="M217.7,161.88l-14.25,54.3c-4.42-.74-12.86,18.08-15.49,23.92-4.53,10.09-10.58,26.13-18.9,72.74-1.31,7.34-4.1,23.37-7.05,45.07v.03c-.36.57-.67,1.03-.92,1.41-18,27.13-37.02,43.21-47.82,51.23,3.47-30.19,6.92-55.19,9.61-73.58,3.74-25.45,5.76-36.32,7.22-43.65,3.51-17.68,6.7-33.78,13.14-53.73,7.78-24.12,18.25-45.64,33.6-65.17,11.53-14.66,20.82-16.71,26.02-16.87,6.37-.19,11.6,2.32,14.83,4.31Z"/>
    <path class="cls-8" d="M240.76,225.18c.04,3.63.06,16.61-2.58,33.57-1.37,8.79-3.49,18.64-6.8,29.42-.97,3.16-1.89,5.79-2.76,8.22-5.95,16.66-11.93,33.38-22.21,53.06-3.68,7.04-14.45,26.96-32.74,50.05-8.7,10.98-17.29,22.75-32.28,34.61-8.95,7.09-31.01,22.93-56.34,24.73,0,0-18.78,1.64-26.69-6.66-1.69-1.77-2.91-3.53-3.68-4.73-.18-.32-1.75-3.06-1.14-6.46.54-3.04,2.6-5.35,5.09-5.56,3.32-.53,7.98-1.44,13.46-3.07,9.73-2.9,25.02-9.78,41.18-21.79,10.8-8.01,29.82-24.09,47.82-51.23.25-.38.56-.84.92-1.41,2.5-3.82,7.66-12.03,13.43-23.11,7.86-15.1,13.27-29.2,17.42-40.26,5.79-15.44,9.15-27.32,11.2-40.95,1.77-11.81,4.09-35.09-.16-37.3-.14-.07-.29-.13-.45-.14l14.25-54.3c1.28.88,3.11,2.24,5.1,4.12,4.13,3.9,8.27,9.36,11.76,18.41,5.77,15.01,6.07,30.36,6.2,40.77Z"/>
    <path class="cls-9" d="M439.31,322.1c-7.96-14.73-20.82-20.7-31.31-15.74-9.17,4.33-14.68,21.64-16.22,25.74-2.49,7.41-6.54,19.96-10.8,35.93-10.54,39.46-11.27,58.16-20.98,92.74-2.9,10.32-7.73,26.1-15.26,44.82-1.61,3.88-4.52,9.8-9.4,15.03-2.93,3.15-11.44,11.28-22,10.55-11.92-.82-22.9-12.7-28.47-30.04-.73-4.72-1.59-10.11-2.9-16.82-1.54-7.96-3.12-14.74-4.44-19.97-1.15-8.7-2.65-15.73-3.88-20.74-2.26-9.23-3.64-14.68-7.17-20.24-2.28-3.59-5.13-8.08-9.65-9.21-7.96-2.01-14.45,8.12-15.1,9.17-1.76,2.51-4.37,6.36-7.38,11.26-3.66,5.96-5.95,10.29-7.38,12.88-3.08,5.56-7.87,13.37-15.17,22.51,4.96-7.9,9.69-18.08,14.81-30.47.01-.03.02-.04.03-.07,5.53-11.98,11.17-24.02,16.93-36.12,2.39-5.01,4.78-10.01,7.17-14.96,4.56-10.08,10.51-16.12,21.31-14.68,12.08,1.59,17.07,13.22,20.27,24.27.92,3.55,1.71,6.49,2.49,9.31.99,3.59,2.48,8.87,4.33,14.97,4.1,13.49,6.15,20.24,8.58,25.07,3.94,7.85,6.76,13.26,12.65,14.96,5.74,1.66,10.97-1.18,11.49-1.48,4.13-2.33,5.86-5.97,7.59-9.59,1.74-3.66,2.47-7.4,3.93-14.87.35-1.8.5-2.74,1.09-6.18,1.02-5.98,1.91-11,2.57-14.73.01-.01.01-.03.01-.06,1.88-8.89,3.85-18.27,5.77-26.28,8.76-36.55,10.76-58.98,22.44-86.75,5.9-14.03,12.21-25.21,22.63-27.38,5.63-1.17,10.59.68,12.44,1.36,10.7,3.98,15.7,14.04,21.36,25.43,2.33,4.68,5.31,11.55,7.63,20.37Z"/>
  </g>
</svg>
